<?xml version="1.0" standalone="no"?>
<!DOCTYPE svg PUBLIC "-//W3C//DTD SVG 20010904//EN"
 "http://www.w3.org/TR/2001/REC-SVG-20010904/DTD/svg10.dtd">
<svg version="1.0" xmlns="http://www.w3.org/2000/svg"
 width="504.000000pt" height="504.000000pt" viewBox="0 0 504.000000 504.000000"
 preserveAspectRatio="xMidYMid meet">
<metadata>
Created by potrace 1.14, written by Peter Selinger 2001-2017
</metadata>
<g transform="translate(0.000000,504.000000) scale(0.100000,-0.100000)"
fill="#000000" stroke="none">
<path d="M21 3781 l-2 -1261 23 -1 c13 0 59 -2 103 -4 338 -12 649 -73 975
-192 170 -62 384 -164 515 -246 217 -135 376 -260 540 -423 208 -207 300 -334
590 -813 151 -249 166 -270 270 -376 196 -200 408 -331 655 -404 192 -56 235
-60 806 -61 l521 0 0 940 0 940 -41 1 c-141 5 -236 14 -361 34 -38 6 -200 46
-260 65 -221 67 -436 178 -631 323 -55 40 -106 80 -114 88 -8 8 -42 37 -75 64
-120 101 -294 286 -385 410 -24 33 -46 62 -50 65 -7 6 -142 228 -198 325 -436
767 -842 1306 -1136 1513 -159 111 -412 220 -576 247 -25 4 -54 10 -65 13 -11
3 -264 7 -561 9 l-542 4 -1 -1260z"/>
<path d="M4749 5019 c-136 -20 -181 -30 -319 -76 -358 -117 -666 -354 -843
-649 -248 -412 -225 -920 60 -1315 278 -387 753 -627 1291 -653 l82 -4 0 1359
0 1359 -79 -2 c-43 -2 -130 -10 -192 -19z"/>
<path d="M20 1036 l0 -1036 1201 0 1202 0 -7 121 c-3 67 -8 124 -10 128 -2 3
-7 29 -10 56 -25 189 -145 498 -266 685 -257 396 -639 703 -1110 890 -139 55
-291 101 -415 126 -11 2 -31 6 -45 9 -119 25 -273 43 -427 51 l-113 5 0 -1035z"/>
</g>
</svg>
